<svg xmlns="http://www.w3.org/2000/svg" xmlns:xlink="http://www.w3.org/1999/xlink" viewBox="0 0 882.09 241.06"><defs><clipPath id="a" transform="translate(-6.65 -4.93)"><polygon points="-113.33 245.99 55.49 4.93 262.5 4.93 431.33 245.99 -113.33 245.99" fill="none"/></clipPath></defs><title>cyberforum-words</title><g style="isolation:isolate"><g clip-path="url(#a)"><path d="M290.9,78.8a20.43,20.43,0,0,1-2.31-.14,23.42,23.42,0,0,1-2.41-.42c-.8-.19-1.61-.43-2.42-.71a23,23,0,0,1-2.36-1,18.22,18.22,0,0,1-3.89-2.48,10,10,0,0,1-2.33-2.76,4.71,4.71,0,0,1-.64-2.68,3.6,3.6,0,0,1,1.16-2.31,6,6,0,0,1,1.22-.88,8.64,8.64,0,0,1,1.55-.62,10.93,10.93,0,0,1,1.81-.37,16.16,16.16,0,0,1,2-.13,21.61,21.61,0,0,1,4.41.5c.76.17,1.53.37,2.29.62s1.53.55,2.28.88a18.77,18.77,0,0,1,3.9,2.31,11.21,11.21,0,0,1,2.56,2.68,5.28,5.28,0,0,1,.94,2.76,3.56,3.56,0,0,1-.93,2.48,5.11,5.11,0,0,1-1.21,1,7.73,7.73,0,0,1-1.59.71,11.54,11.54,0,0,1-1.9.42,16.25,16.25,0,0,1-2.14.14m-12.51-21a30.59,30.59,0,0,0-3.9.24,23.46,23.46,0,0,0-3.53.7,17.05,17.05,0,0,0-3.06,1.17,11.66,11.66,0,0,0-2.47,1.68A7.38,7.38,0,0,0,262.91,66a9,9,0,0,0,1,5.3,18.7,18.7,0,0,0,4.42,5.58,34.82,34.82,0,0,0,7.77,5.15,45.33,45.33,0,0,0,4.82,2.06,45.91,45.91,0,0,0,5,1.5,47.09,47.09,0,0,0,5,.91,39.61,39.61,0,0,0,4.79.3,31.36,31.36,0,0,0,4.43-.3,23,23,0,0,0,3.9-.91,14.62,14.62,0,0,0,3.21-1.5,9.67,9.67,0,0,0,2.36-2.06,7,7,0,0,0,1.64-5.15A11.33,11.33,0,0,0,309,71.32a23.9,23.9,0,0,0-5.33-5.3,39.08,39.08,0,0,0-7.81-4.45q-2.22-1-4.47-1.68c-1.49-.47-3-.86-4.46-1.17a42.89,42.89,0,0,0-4.36-.7,37.68,37.68,0,0,0-4.18-.24" transform="translate(-6.65 -4.93)" fill="#1bb3de"/><path d="M158.86,112.42a16.78,16.78,0,0,1-2.56-.19,15.66,15.66,0,0,1-2.48-.56,15,15,0,0,1-2.3-.93,12.66,12.66,0,0,1-2.05-1.29,9.76,9.76,0,0,1-2.76-3.28,7.29,7.29,0,0,1-.77-3.62A7.55,7.55,0,0,1,147.06,99,10.13,10.13,0,0,1,150,96a13.25,13.25,0,0,1,2-1.15,15.88,15.88,0,0,1,2.19-.81,16.33,16.33,0,0,1,2.31-.48,17.78,17.78,0,0,1,4.76,0,16.33,16.33,0,0,1,2.31.48,15.88,15.88,0,0,1,2.19.81,13.25,13.25,0,0,1,2,1.15,10.09,10.09,0,0,1,2.91,3,7.55,7.55,0,0,1,1.12,3.52,7.3,7.3,0,0,1-.78,3.62,9.54,9.54,0,0,1-2.76,3.28,12.66,12.66,0,0,1-2.05,1.29,15,15,0,0,1-2.3.93,15.66,15.66,0,0,1-2.48.56,16.78,16.78,0,0,1-2.56.19m-44-33.62a17.68,17.68,0,0,1-2.2-.14,14.87,14.87,0,0,1-2.07-.42,11.75,11.75,0,0,1-1.86-.71,9,9,0,0,1-1.59-1,5.8,5.8,0,0,1-1.92-2.48,4.49,4.49,0,0,1-.14-2.76,6.38,6.38,0,0,1,1.49-2.68,11,11,0,0,1,3-2.31,17.62,17.62,0,0,1,1.92-.88,18,18,0,0,1,2.05-.62,16.47,16.47,0,0,1,2.1-.37,18.67,18.67,0,0,1,2.11-.13,17.39,17.39,0,0,1,2.06.13,13.85,13.85,0,0,1,2,.37,12.58,12.58,0,0,1,1.79.62,10.4,10.4,0,0,1,1.58.88,6.12,6.12,0,0,1,2.07,2.31,4.54,4.54,0,0,1,.43,2.68,6,6,0,0,1-1.24,2.76,10.54,10.54,0,0,1-2.91,2.48,15.13,15.13,0,0,1-2,1,17.45,17.45,0,0,1-2.15.71,18.44,18.44,0,0,1-2.24.42,18.88,18.88,0,0,1-2.25.14m26.24-25.69-11.58,6.44c-.79-.29-1.6-.55-2.45-.77a26.18,26.18,0,0,0-2.58-.56c-.88-.14-1.77-.25-2.68-.33s-1.84-.11-2.77-.11A35.15,35.15,0,0,0,115,58a33.61,33.61,0,0,0-4.09.7,34.42,34.42,0,0,0-4,1.17,31.67,31.67,0,0,0-3.81,1.68A22.82,22.82,0,0,0,97,66a13.61,13.61,0,0,0-3.23,5.3,9.32,9.32,0,0,0,0,5.58,11.05,11.05,0,0,0,3.68,5.15,16.87,16.87,0,0,0,3.18,2.06,22.43,22.43,0,0,0,3.8,1.5,28.7,28.7,0,0,0,4.26.91,34,34,0,0,0,4.55.3c1.06,0,2.14,0,3.21-.14s2.15-.24,3.21-.43,2.12-.43,3.16-.72a31.72,31.72,0,0,0,3-1l11.56,8.73a17.54,17.54,0,0,0-3.5,5.49,14.48,14.48,0,0,0-1,6.08,14.77,14.77,0,0,0,1.78,6.19,19.11,19.11,0,0,0,4.78,5.71,24.93,24.93,0,0,0,4.13,2.75,29.08,29.08,0,0,0,4.72,2,32.75,32.75,0,0,0,5.13,1.22,35.84,35.84,0,0,0,10.68,0,32.6,32.6,0,0,0,5.14-1.22,29.08,29.08,0,0,0,4.72-2,24.93,24.93,0,0,0,4.13-2.75,18.57,18.57,0,0,0,5.34-6.84,14.33,14.33,0,0,0,1.18-7.35,15.39,15.39,0,0,0-2.56-6.94,20.7,20.7,0,0,0-5.95-5.78,27.6,27.6,0,0,0-4-2.17A30.65,30.65,0,0,0,168,86.14a34,34,0,0,0-4.49-.9,35.15,35.15,0,0,0-4.59-.3c-1.05,0-2.11,0-3.16.14s-2.09.23-3.13.42-2.05.43-3.06.72a31.2,31.2,0,0,0-3,1L135,78.93a15.25,15.25,0,0,0,2.79-3.76,10.71,10.71,0,0,0,1.16-3.85,9,9,0,0,0-.42-3.71,10,10,0,0,0-1.93-3.38l11.61-6.75h0c-.37-.13-.73-.27-1.08-.41s-.7-.3-1-.47-.66-.32-1-.5-.64-.35-.94-.54-.59-.39-.87-.58-.54-.4-.79-.6l-.72-.63q-.33-.32-.63-.63" transform="translate(-6.65 -4.93)" fill="#20b3dd"/><path d="M236.67,53a19.84,19.84,0,0,1-2-.11c-.68-.08-1.36-.19-2-.33a18.84,18.84,0,0,1-2-.55,17.39,17.39,0,0,1-1.89-.77,11.31,11.31,0,0,1-2.92-1.94,5.59,5.59,0,0,1-1.48-2.16,3,3,0,0,1,0-2.12,3.88,3.88,0,0,1,1.51-1.82,6.8,6.8,0,0,1,1.28-.7,9.88,9.88,0,0,1,1.51-.49,14.87,14.87,0,0,1,1.69-.3,18,18,0,0,1,1.82-.1c.62,0,1.26,0,1.9.1s1.28.17,1.92.3a17.65,17.65,0,0,1,1.9.49,17,17,0,0,1,1.84.7,12.07,12.07,0,0,1,3,1.82,6.14,6.14,0,0,1,1.67,2.12,3.22,3.22,0,0,1,.24,2.16,3.69,3.69,0,0,1-1.38,1.94,7,7,0,0,1-1.28.77,9.86,9.86,0,0,1-1.56.55,15.45,15.45,0,0,1-1.77.33,17.09,17.09,0,0,1-1.92.11m-27-20.32c-.14.17-.3.34-.47.51s-.35.33-.54.5-.4.32-.62.48-.45.31-.69.46-.5.3-.76.44-.53.28-.81.4-.57.26-.86.37-.6.23-.9.34l11.33,5.35a6.2,6.2,0,0,0-1.31,3.33,7,7,0,0,0,.8,3.65,12.56,12.56,0,0,0,2.94,3.67,23.08,23.08,0,0,0,5.08,3.36,34.11,34.11,0,0,0,3.82,1.6,37.35,37.35,0,0,0,4.08,1.16A39.8,39.8,0,0,0,235,59a36.58,36.58,0,0,0,4.15.23,31.82,31.82,0,0,0,4-.23,26.38,26.38,0,0,0,3.64-.7,18.85,18.85,0,0,0,3.15-1.16,12.94,12.94,0,0,0,2.56-1.6,7.18,7.18,0,0,0,2.6-4,6.79,6.79,0,0,0-.7-4.38A13.22,13.22,0,0,0,250.81,43a25.56,25.56,0,0,0-5.95-3.53,35.62,35.62,0,0,0-3.62-1.33,38.44,38.44,0,0,0-7.47-1.5c-1.24-.12-2.47-.18-3.68-.18-.83,0-1.65,0-2.45.08s-1.59.15-2.36.27a22.55,22.55,0,0,0-2.23.44,19.13,19.13,0,0,0-2.07.62l-11.27-5.14" transform="translate(-6.65 -4.93)" fill="#c4c4c4"/><path d="M99.09,158.06a17.09,17.09,0,0,1-3-.26,15.4,15.4,0,0,1-2.76-.78,12.19,12.19,0,0,1-2.45-1.3,10.57,10.57,0,0,1-2-1.79,9.83,9.83,0,0,1-2.31-4.52,10.91,10.91,0,0,1,.12-5,14.27,14.27,0,0,1,2.3-4.81,18,18,0,0,1,4.24-4.1A19.69,19.69,0,0,1,95.87,134a20.2,20.2,0,0,1,2.77-1.1,19.3,19.3,0,0,1,2.83-.66,17.83,17.83,0,0,1,2.81-.22,16.28,16.28,0,0,1,2.72.22,14.45,14.45,0,0,1,2.57.66,12.84,12.84,0,0,1,2.34,1.1,11.36,11.36,0,0,1,2,1.55,10.06,10.06,0,0,1,2.61,4.1,10.51,10.51,0,0,1,.38,4.81,13.25,13.25,0,0,1-1.86,5,16.71,16.71,0,0,1-4.11,4.52,19.32,19.32,0,0,1-2.75,1.79,20,20,0,0,1-3,1.3,20.93,20.93,0,0,1-3.07.78,19.11,19.11,0,0,1-3.08.26m7.46-37.47a36.48,36.48,0,0,0-5.38.4,39.33,39.33,0,0,0-5.44,1.21,40,40,0,0,0-5.38,2,41.22,41.22,0,0,0-5.21,2.91A36.79,36.79,0,0,0,76.57,135a29.28,29.28,0,0,0-5,9.46,22.62,22.62,0,0,0-.79,10.13A19.88,19.88,0,0,0,75,164.08a22.23,22.23,0,0,0,4.08,3.85,24.42,24.42,0,0,0,5,2.81,28.46,28.46,0,0,0,5.74,1.71,33.57,33.57,0,0,0,6.23.58,34.75,34.75,0,0,0,4.42-.28,38.32,38.32,0,0,0,4.46-.81,41.72,41.72,0,0,0,4.39-1.34,40.92,40.92,0,0,0,4.25-1.87l15.41,16.63c.41-.61.85-1.2,1.3-1.77s.92-1.15,1.41-1.7,1-1.09,1.51-1.61,1.06-1,1.61-1.54,1.12-1,1.69-1.43,1.15-.88,1.73-1.3,1.18-.8,1.78-1.17,1.2-.73,1.81-1.06l-15.52-15.5a28.89,28.89,0,0,0,4.54-8.47,23.43,23.43,0,0,0,1.22-8.46,20.32,20.32,0,0,0-1.91-7.73,20.67,20.67,0,0,0-4.87-6.47,23.76,23.76,0,0,0-4-2.91,26.08,26.08,0,0,0-4.57-2,30.07,30.07,0,0,0-5-1.21,33.36,33.36,0,0,0-5.23-.4" transform="translate(-6.65 -4.93)" fill="#1659a5"/><path d="M158.91,16c-.53,0-1.07,0-1.59-.07a15.22,15.22,0,0,1-1.55-.22,12.63,12.63,0,0,1-1.44-.36,9.35,9.35,0,0,1-1.29-.5,5.18,5.18,0,0,1-1.76-1.29,2.1,2.1,0,0,1-.53-1.44,2.28,2.28,0,0,1,.67-1.41,5.65,5.65,0,0,1,1.83-1.22,10.48,10.48,0,0,1,1.27-.47,14.13,14.13,0,0,1,1.39-.33c.49-.09,1-.15,1.48-.2s1-.06,1.53-.06,1,0,1.52.06,1,.11,1.48.2a14.13,14.13,0,0,1,1.39.33,11.32,11.32,0,0,1,1.28.47,5.71,5.71,0,0,1,1.82,1.22,2.28,2.28,0,0,1,.67,1.41,2.1,2.1,0,0,1-.53,1.44,5.23,5.23,0,0,1-1.77,1.29,9.35,9.35,0,0,1-1.29.5,12.12,12.12,0,0,1-1.44.36,15.43,15.43,0,0,1-1.54.22c-.53.05-1.06.07-1.6.07m0-11.1c-1,0-2,.05-3,.13s-1.95.21-2.9.38a25.68,25.68,0,0,0-2.75.64,19.34,19.34,0,0,0-2.53.9,12.28,12.28,0,0,0-3.26,2,5.72,5.72,0,0,0-1.7,2.3,3.68,3.68,0,0,0,0,2.45,5.65,5.65,0,0,0,1.72,2.4l-9.25,4.21.87.28.83.31.8.34.76.38c.25.13.49.26.72.4l.65.42c.21.14.4.29.59.44s.36.3.53.45h0L150.26,19c.65.19,1.33.36,2,.5s1.41.27,2.14.36,1.47.17,2.22.22,1.5.07,2.26.07q1.65,0,3.27-.15a31.61,31.61,0,0,0,3.16-.46,23.68,23.68,0,0,0,2.93-.76,19.15,19.15,0,0,0,2.59-1,9.68,9.68,0,0,0,3.46-2.65,4,4,0,0,0,.92-2.9,4.84,4.84,0,0,0-1.47-2.8A11.7,11.7,0,0,0,170.07,7a18.84,18.84,0,0,0-2.53-.9,25.68,25.68,0,0,0-2.75-.64c-.94-.17-1.91-.3-2.9-.38s-2-.13-3-.13" transform="translate(-6.65 -4.93)" fill="#1a5aa6"/><path d="M158.89,53a18.43,18.43,0,0,1-2-.11c-.64-.08-1.28-.19-1.9-.33a14,14,0,0,1-1.77-.55,11,11,0,0,1-1.58-.77,6.43,6.43,0,0,1-2.15-1.94,3.54,3.54,0,0,1-.63-2.16,3.78,3.78,0,0,1,.84-2.12A6.9,6.9,0,0,1,152,43.21a11,11,0,0,1,1.56-.7,13.48,13.48,0,0,1,1.71-.49,17.32,17.32,0,0,1,1.8-.3c.62-.06,1.24-.1,1.86-.1s1.24,0,1.85.1a17.52,17.52,0,0,1,1.81.3,12.88,12.88,0,0,1,1.7.49,11,11,0,0,1,1.56.7A6.9,6.9,0,0,1,168.06,45a3.78,3.78,0,0,1,.84,2.12,3.54,3.54,0,0,1-.63,2.16,6.43,6.43,0,0,1-2.15,1.94,10.64,10.64,0,0,1-1.59.77,13.54,13.54,0,0,1-1.77.55c-.62.14-1.25.25-1.9.33a18.43,18.43,0,0,1-2,.11m0-16.59a36.06,36.06,0,0,0-3.61.18,34,34,0,0,0-3.52.56,27.52,27.52,0,0,0-3.35.94,23.19,23.19,0,0,0-3.09,1.33,15.53,15.53,0,0,0-4,2.93,8.91,8.91,0,0,0-2.14,3.43,6.71,6.71,0,0,0-.11,3.69,8.63,8.63,0,0,0,2.05,3.63q.3.31.63.63l.72.63c.25.2.51.4.79.6s.57.39.87.58.62.37.94.54.65.34,1,.5.69.32,1,.47.71.28,1.08.41a25.22,25.22,0,0,0,2.51.77c.87.23,1.75.41,2.66.56s1.82.26,2.75.33,1.87.11,2.81.11A34.29,34.29,0,0,0,163,59a33.27,33.27,0,0,0,3.91-.7,27.33,27.33,0,0,0,3.62-1.16,22,22,0,0,0,3.18-1.6,12.53,12.53,0,0,0,4.2-4,7.07,7.07,0,0,0,1-4.38A7.86,7.86,0,0,0,177,43a14.81,14.81,0,0,0-4.56-3.53,23.19,23.19,0,0,0-3.09-1.33,27.52,27.52,0,0,0-3.35-.94,34,34,0,0,0-3.52-.56,36.06,36.06,0,0,0-3.61-.18" transform="translate(-6.65 -4.93)" fill="#c4c4c4"/><path d="M193.77,32.61a17.68,17.68,0,0,1-1.78-.09c-.59-.06-1.18-.15-1.76-.26s-1.13-.27-1.67-.44A13.36,13.36,0,0,1,187,31.2a7.52,7.52,0,0,1-2.25-1.56,3.26,3.26,0,0,1-.92-1.75,2.37,2.37,0,0,1,.4-1.71A4.68,4.68,0,0,1,186,24.7a9,9,0,0,1,1.29-.56,10.61,10.61,0,0,1,1.45-.4,13.35,13.35,0,0,1,1.58-.24,15.13,15.13,0,0,1,1.66-.08,16.06,16.06,0,0,1,1.69.08,15.61,15.61,0,0,1,1.67.24,14.73,14.73,0,0,1,1.62.4,14.23,14.23,0,0,1,1.51.56,8.16,8.16,0,0,1,2.3,1.48,3.65,3.65,0,0,1,1.09,1.71,2.45,2.45,0,0,1-.23,1.75A4.31,4.31,0,0,1,200,31.2a8.7,8.7,0,0,1-1.3.62,12.56,12.56,0,0,1-1.5.44c-.53.11-1.08.2-1.65.26a16.8,16.8,0,0,1-1.75.09m-2.66-13.44c-1.09,0-2.18,0-3.23.15s-2.1.26-3.09.46a22.89,22.89,0,0,0-2.88.77,18.56,18.56,0,0,0-2.56,1.08,9.88,9.88,0,0,0-3.52,2.87,5,5,0,0,0-1,3.39,6.28,6.28,0,0,0,1.67,3.53A14.38,14.38,0,0,0,181,34.64a23.29,23.29,0,0,0,3.11,1.28,31.23,31.23,0,0,0,3.42.93,33.08,33.08,0,0,0,3.61.56,34.51,34.51,0,0,0,3.66.19c.84,0,1.66,0,2.48-.09s1.62-.15,2.41-.27,1.54-.26,2.28-.44a22.06,22.06,0,0,0,2.13-.61c.3-.11.61-.22.9-.34s.58-.24.86-.37.55-.26.81-.4.51-.29.76-.44.47-.3.69-.46.42-.32.62-.48.37-.33.54-.5.33-.34.47-.51a5.39,5.39,0,0,0,1.3-2.92,5.18,5.18,0,0,0-.65-3A9.43,9.43,0,0,0,207.92,24a18.14,18.14,0,0,0-4.08-2.38,28.61,28.61,0,0,0-3-1.08,30.09,30.09,0,0,0-3.18-.77c-1.08-.2-2.17-.35-3.27-.46s-2.2-.15-3.29-.15" transform="translate(-6.65 -4.93)" fill="#0f58a5"/><path d="M158.8,223.55a17.92,17.92,0,0,1-7.23-1.54,18.08,18.08,0,0,1-3.28-1.91,18.35,18.35,0,0,1-2.9-2.63,19.14,19.14,0,0,1-3.84-6.64,19.69,19.69,0,0,1,.7-14.24,18.86,18.86,0,0,1,4.16-5.9,17.74,17.74,0,0,1,2.81-2.23,17.66,17.66,0,0,1,19.19,0,17.81,17.81,0,0,1,2.82,2.23,19,19,0,0,1,4.15,5.9,19.69,19.69,0,0,1,.68,14.24,19.17,19.17,0,0,1-3.85,6.64A18.36,18.36,0,0,1,166,222a17.22,17.22,0,0,1-3.54,1.15,17.63,17.63,0,0,1-3.68.39m0-54.08a34.84,34.84,0,0,0-4.33.27,35.41,35.41,0,0,0-8.51,2.14,37,37,0,0,0-4.1,1.9c-.61.33-1.21.69-1.81,1.06s-1.19.76-1.78,1.17-1.16.85-1.73,1.3-1.13.94-1.69,1.43-1.09,1-1.61,1.54-1,1.06-1.51,1.61-1,1.12-1.41,1.7-.89,1.16-1.3,1.77a38.46,38.46,0,0,0-5.18,10.69,39.8,39.8,0,0,0,.4,24.65,38.55,38.55,0,0,0,6.58,11.83,37.12,37.12,0,0,0,5.86,5.77A35.61,35.61,0,0,0,151,245.12a35.45,35.45,0,0,0,15.61,0,35.57,35.57,0,0,0,14.28-6.82,37.18,37.18,0,0,0,5.87-5.77,38.63,38.63,0,0,0,7.31-14.14,39.93,39.93,0,0,0-2.76-28.5,37.94,37.94,0,0,0-8.53-11.15,37.5,37.5,0,0,0-5.54-4.12,35.8,35.8,0,0,0-12.1-4.59,36,36,0,0,0-6.29-.56" transform="translate(-6.65 -4.93)" fill="#20b3dd"/><path d="M218.58,158.06a18.92,18.92,0,0,1-3.08-.26,20.93,20.93,0,0,1-3.07-.78,20.43,20.43,0,0,1-3-1.3,19.32,19.32,0,0,1-2.75-1.79,16.87,16.87,0,0,1-4.11-4.52,13.4,13.4,0,0,1-1.85-5,10.52,10.52,0,0,1,.39-4.81,10.06,10.06,0,0,1,2.61-4.1,11.43,11.43,0,0,1,2-1.55,12.53,12.53,0,0,1,2.34-1.1,14.57,14.57,0,0,1,2.56-.66,16.4,16.4,0,0,1,2.73-.22,18,18,0,0,1,2.81.22,18.88,18.88,0,0,1,2.82.66,19.82,19.82,0,0,1,2.78,1.1,20.33,20.33,0,0,1,2.65,1.55,18.18,18.18,0,0,1,4.23,4.1,14.05,14.05,0,0,1,2.29,4.81,10.91,10.91,0,0,1,.12,5,9.83,9.83,0,0,1-2.31,4.52,10.93,10.93,0,0,1-2.05,1.79,12.19,12.19,0,0,1-2.45,1.3,15.4,15.4,0,0,1-2.76.78,17.09,17.09,0,0,1-3,.26m18.53-45.47L226,123.65c-1.23-.52-2.46-1-3.71-1.35a38.47,38.47,0,0,0-3.73-1,34.7,34.7,0,0,0-3.73-.57,35.36,35.36,0,0,0-3.69-.19,33.36,33.36,0,0,0-5.23.4,30.18,30.18,0,0,0-5,1.21,26.41,26.41,0,0,0-4.57,2,24.57,24.57,0,0,0-4.05,2.91,20.56,20.56,0,0,0-5.46,7.82,20.79,20.79,0,0,0-1.26,9.46,25.79,25.79,0,0,0,3.23,10.13,33.54,33.54,0,0,0,8,9.52,39.86,39.86,0,0,0,5.61,3.85,39.71,39.71,0,0,0,12.56,4.52,36.51,36.51,0,0,0,6.46.58,32.64,32.64,0,0,0,6.22-.58,28.55,28.55,0,0,0,5.75-1.71,24.34,24.34,0,0,0,5-2.81,22,22,0,0,0,4.09-3.85,20,20,0,0,0,4-8,21.56,21.56,0,0,0,.27-8.55,26.75,26.75,0,0,0-2.92-8.33,32.56,32.56,0,0,0-5.66-7.45l10.9-11.74,0,0c-.57-.23-1.13-.47-1.7-.72s-1.11-.52-1.66-.8-1.1-.57-1.64-.87-1.06-.61-1.58-.94-1-.64-1.51-1-1-.67-1.41-1-.89-.69-1.32-1-.83-.71-1.22-1.07" transform="translate(-6.65 -4.93)" fill="#c4c4c4"/><path d="M260.18,112.39a20,20,0,0,1-2.64-.18,22,22,0,0,1-2.7-.57,19.22,19.22,0,0,1-2.67-.93,21.15,21.15,0,0,1-2.56-1.29,17,17,0,0,1-4.05-3.27,10.75,10.75,0,0,1-2.21-3.63,6.66,6.66,0,0,1-.28-3.51,5.88,5.88,0,0,1,1.72-3,7.86,7.86,0,0,1,1.55-1.14,10.55,10.55,0,0,1,1.87-.81,11.82,11.82,0,0,1,2.13-.48,15.71,15.71,0,0,1,2.31-.16,18.51,18.51,0,0,1,2.44.16,18.79,18.79,0,0,1,2.51.48,23.62,23.62,0,0,1,2.51.81A22.8,22.8,0,0,1,262.57,96a18.08,18.08,0,0,1,4.1,3,12.15,12.15,0,0,1,2.52,3.51,7.2,7.2,0,0,1,.66,3.63,5.68,5.68,0,0,1-1.45,3.27,7.43,7.43,0,0,1-1.54,1.29,8.62,8.62,0,0,1-1.93.93,13.11,13.11,0,0,1-2.26.57,16.67,16.67,0,0,1-2.49.18M223,78.93q-.25.41-.54.81c-.2.27-.41.54-.64.8s-.48.52-.74.77-.54.5-.84.74-.6.48-.92.71-.65.44-1,.65-.69.4-1.06.59-.73.37-1.12.54l15,8.71a11.44,11.44,0,0,0-1.28,4.42,13.76,13.76,0,0,0,.55,4.87,18.66,18.66,0,0,0,2.4,5.07,26.89,26.89,0,0,0,4.27,5c.39.36.8.72,1.22,1.07s.86.71,1.32,1,.92.69,1.41,1,1,.66,1.51,1,1.05.64,1.58.94,1.09.59,1.64.87,1.1.54,1.66.8,1.13.49,1.7.72q1.89.75,3.81,1.32c1.28.39,2.57.7,3.86,1s2.57.45,3.84.57a37,37,0,0,0,3.76.2,32.16,32.16,0,0,0,5.18-.41,24.55,24.55,0,0,0,4.65-1.22,17.91,17.91,0,0,0,3.93-2,13.82,13.82,0,0,0,3-2.75,11.4,11.4,0,0,0,2.63-6.83,15.06,15.06,0,0,0-1.75-7.35,25.07,25.07,0,0,0-5.31-6.94,36.87,36.87,0,0,0-8.24-5.78,44.11,44.11,0,0,0-4.83-2.17A42.42,42.42,0,0,0,254,85.22a37.8,37.8,0,0,0-4.7-.3c-1.06,0-2.09,0-3.11.14a27.56,27.56,0,0,0-3,.42,24.06,24.06,0,0,0-2.78.72,20.62,20.62,0,0,0-2.56,1L223,78.93" transform="translate(-6.65 -4.93)" fill="#1bb3de"/><path d="M202.89,78.8a18.41,18.41,0,0,1-4.5-.56,17.31,17.31,0,0,1-2.14-.71,14.54,14.54,0,0,1-2-1,10.54,10.54,0,0,1-2.91-2.48,6,6,0,0,1-1.23-2.76,4.45,4.45,0,0,1,.42-2.68,6.24,6.24,0,0,1,2.08-2.31,10.4,10.4,0,0,1,1.58-.88,12.58,12.58,0,0,1,1.79-.62,13.85,13.85,0,0,1,2-.37,17.39,17.39,0,0,1,2.06-.13,18.67,18.67,0,0,1,2.11.13,16.47,16.47,0,0,1,2.1.37,18,18,0,0,1,2.05.62,17.62,17.62,0,0,1,1.92.88,11,11,0,0,1,3,2.31,6.49,6.49,0,0,1,1.49,2.68,4.56,4.56,0,0,1-.15,2.76,5.8,5.8,0,0,1-1.92,2.48,9,9,0,0,1-1.59,1,11.87,11.87,0,0,1-1.87.71,15,15,0,0,1-2.06.42,17.8,17.8,0,0,1-2.2.14m-4.17-21a32.76,32.76,0,0,0-4,.24,29.14,29.14,0,0,0-3.81.7,24.75,24.75,0,0,0-3.53,1.17,20,20,0,0,0-3.14,1.68A12.86,12.86,0,0,0,180,66a9.18,9.18,0,0,0-1.12,5.3,11.47,11.47,0,0,0,2.21,5.58,19.73,19.73,0,0,0,5.72,5.15,29,29,0,0,0,4,2.06,33,33,0,0,0,4.4,1.5,37.73,37.73,0,0,0,4.62.91,36.73,36.73,0,0,0,4.67.3c1.06,0,2.12,0,3.15-.14s2-.24,3-.43a25.61,25.61,0,0,0,2.87-.72,21.33,21.33,0,0,0,2.65-1c.39-.17.76-.35,1.12-.54s.72-.39,1.06-.59.67-.43,1-.65.63-.46.92-.71.58-.49.84-.74.51-.51.74-.77.44-.53.64-.8.37-.54.54-.81a9.26,9.26,0,0,0,1.36-4.64,10.33,10.33,0,0,0-1.11-4.68A15.5,15.5,0,0,0,220,65.25a24,24,0,0,0-5.28-3.68,31.52,31.52,0,0,0-3.8-1.68,34.58,34.58,0,0,0-4-1.17,37,37,0,0,0-8.17-.94" transform="translate(-6.65 -4.93)" fill="#1a5aa6"/><path d="M81.27,53.12A17.27,17.27,0,0,1,79.34,53a12.07,12.07,0,0,1-1.77-.33A9.52,9.52,0,0,1,76,52.13a6.36,6.36,0,0,1-1.28-.76,3.64,3.64,0,0,1-1.38-1.95,3.24,3.24,0,0,1,.23-2.17,6.37,6.37,0,0,1,1.68-2.12,12.38,12.38,0,0,1,3-1.82,17,17,0,0,1,1.84-.7,17.65,17.65,0,0,1,1.9-.49c.65-.13,1.29-.23,1.93-.3s1.27-.1,1.9-.1a17.64,17.64,0,0,1,1.81.1,14.12,14.12,0,0,1,1.69.3,9.21,9.21,0,0,1,1.51.49,6.8,6.8,0,0,1,1.28.7,4,4,0,0,1,1.52,1.82,3.09,3.09,0,0,1,0,2.12,5.54,5.54,0,0,1-1.49,2.17,11.58,11.58,0,0,1-2.92,1.95,17.17,17.17,0,0,1-1.88.76,19.71,19.71,0,0,1-2,.55,17.52,17.52,0,0,1-2,.33,19.64,19.64,0,0,1-2,.11m6.59-16.61c-1.21,0-2.45.06-3.69.18s-2.5.32-3.75.56a36.86,36.86,0,0,0-3.72,1,33.38,33.38,0,0,0-3.62,1.33,26.66,26.66,0,0,0-5.19,2.93A15.64,15.64,0,0,0,64.4,45.9a8.35,8.35,0,0,0-1.58,3.69,6,6,0,0,0,.61,3.63L49.29,59.68l0,0a9.13,9.13,0,0,1,.89.43l.83.47c.26.17.52.35.76.53s.48.38.71.58.43.4.62.61.37.43.54.65a7.26,7.26,0,0,1,.45.68,6.7,6.7,0,0,1,.37.7L68.76,57.6a20.5,20.5,0,0,0,2.21.77,24.93,24.93,0,0,0,2.44.55c.84.15,1.72.26,2.62.33s1.82.12,2.76.12a36.62,36.62,0,0,0,4.15-.24,40.42,40.42,0,0,0,4.2-.7,35.86,35.86,0,0,0,4.08-1.17A32.34,32.34,0,0,0,95,55.66a22.1,22.1,0,0,0,5.79-4,10.6,10.6,0,0,0,2.78-4.39,6.08,6.08,0,0,0-.21-4.19,8.25,8.25,0,0,0-3.17-3.53,13.72,13.72,0,0,0-2.56-1.33,19.85,19.85,0,0,0-3-1,30.44,30.44,0,0,0-3.31-.56,33.9,33.9,0,0,0-3.53-.18" transform="translate(-6.65 -4.93)" fill="#1d5ba7"/><path d="M27,79a14.8,14.8,0,0,1-2.14-.14A10.6,10.6,0,0,1,23,78.4a7.73,7.73,0,0,1-1.59-.71,4.85,4.85,0,0,1-1.2-1,3.5,3.5,0,0,1-.94-2.48,5.36,5.36,0,0,1,.95-2.75,11.06,11.06,0,0,1,2.56-2.69,18.6,18.6,0,0,1,3.9-2.31,21.86,21.86,0,0,1,2.28-.88c.76-.25,1.53-.46,2.29-.63s1.52-.29,2.26-.37a20,20,0,0,1,2.15-.13,16.33,16.33,0,0,1,2,.13,12.32,12.32,0,0,1,1.81.37A8.66,8.66,0,0,1,41,65.6a5.36,5.36,0,0,1,1.23.88,3.62,3.62,0,0,1,1.16,2.31,4.77,4.77,0,0,1-.65,2.69,9.93,9.93,0,0,1-2.33,2.75,17.47,17.47,0,0,1-3.89,2.48,21.13,21.13,0,0,1-2.37,1,24,24,0,0,1-2.43.71,20.83,20.83,0,0,1-2.4.42A18.5,18.5,0,0,1,27,79m12.53-21a40.24,40.24,0,0,0-4.19.23c-1.43.16-2.89.39-4.36.7s-3,.71-4.47,1.18-3,1-4.47,1.68a39.45,39.45,0,0,0-7.82,4.45,24,24,0,0,0-5.33,5.32,11.37,11.37,0,0,0-2.22,5.58,7.06,7.06,0,0,0,1.64,5.16,9.57,9.57,0,0,0,2.37,2.07,14.77,14.77,0,0,0,3.2,1.49,21.53,21.53,0,0,0,3.91.91,31.33,31.33,0,0,0,4.43.31q1.61,0,3.27-.15c1.12-.09,2.25-.24,3.39-.43s2.29-.43,3.44-.71,2.29-.62,3.44-1l8.08,8.72c.41-.32.84-.62,1.27-.92s.88-.6,1.34-.89.92-.57,1.4-.84,1-.54,1.46-.81,1-.51,1.5-.74,1-.47,1.51-.69l1.52-.62c.5-.19,1-.38,1.52-.55l-8.29-8.29a27.33,27.33,0,0,0,4.28-3.77A16.43,16.43,0,0,0,54,71.46a10,10,0,0,0,1-3.72,7.11,7.11,0,0,0-.6-3.39,6.7,6.7,0,0,0-.37-.7,7.26,7.26,0,0,0-.45-.68c-.17-.22-.34-.43-.54-.65s-.4-.41-.62-.61-.46-.39-.71-.58-.5-.36-.76-.53l-.83-.47a9.13,9.13,0,0,0-.89-.43,17.92,17.92,0,0,0-2.14-.79,23.29,23.29,0,0,0-2.36-.55c-.83-.15-1.68-.26-2.56-.33s-1.79-.11-2.72-.11" transform="translate(-6.65 -4.93)" fill="#1bb3de"/><path d="M57.67,112.61a15.51,15.51,0,0,1-2.49-.19,13.1,13.1,0,0,1-2.26-.56,9.93,9.93,0,0,1-1.94-.93,7.73,7.73,0,0,1-1.53-1.3A5.72,5.72,0,0,1,48,106.35a7.07,7.07,0,0,1,.67-3.62,12,12,0,0,1,2.51-3.53,18.13,18.13,0,0,1,4.11-3A21.9,21.9,0,0,1,57.74,95a20.46,20.46,0,0,1,2.52-.81,21,21,0,0,1,2.51-.49,18.66,18.66,0,0,1,2.45-.16,15.81,15.81,0,0,1,2.31.16,12.74,12.74,0,0,1,2.13.49,9.51,9.51,0,0,1,1.87.81,8.1,8.1,0,0,1,1.55,1.15,5.83,5.83,0,0,1,1.71,3,6.54,6.54,0,0,1-.28,3.53,10.84,10.84,0,0,1-2.2,3.62,17.27,17.27,0,0,1-4.06,3.28,23.67,23.67,0,0,1-2.56,1.3,22.39,22.39,0,0,1-2.68.93,21.59,21.59,0,0,1-2.7.56,18.34,18.34,0,0,1-2.64.19M68.59,85.09c-1.06,0-2.13,0-3.22.14s-2.19.24-3.3.43-2.23.42-3.35.71-2.24.62-3.36,1c-.51.17-1,.36-1.52.55l-1.52.62c-.51.22-1,.45-1.51.69s-1,.48-1.5.74-1,.53-1.46.81-.94.55-1.4.84-.9.59-1.34.89-.86.6-1.27.92a30.69,30.69,0,0,0-5.68,5.49A20.94,20.94,0,0,0,34.77,105a13.5,13.5,0,0,0-.68,6.2,11.42,11.42,0,0,0,2.53,5.72,14.26,14.26,0,0,0,3,2.75,18.22,18.22,0,0,0,3.94,2,24.55,24.55,0,0,0,4.65,1.22,32.16,32.16,0,0,0,5.18.41,38.58,38.58,0,0,0,5.51-.41,43.45,43.45,0,0,0,11.14-3.22,41.23,41.23,0,0,0,5.22-2.75,33.24,33.24,0,0,0,8.06-6.85,20.71,20.71,0,0,0,4.1-7.36,12.78,12.78,0,0,0,.18-7A11.88,11.88,0,0,0,84,90a16,16,0,0,0-3.11-2.16,21.23,21.23,0,0,0-3.68-1.53,26.73,26.73,0,0,0-4.13-.9,32.58,32.58,0,0,0-4.47-.3" transform="translate(-6.65 -4.93)" fill="#c4c4c4"/><path d="M124.07,32.59a16.8,16.8,0,0,1-1.75-.09,12.35,12.35,0,0,1-1.65-.26,12.56,12.56,0,0,1-1.5-.44,8.68,8.68,0,0,1-1.3-.61,4.22,4.22,0,0,1-1.62-1.57,2.37,2.37,0,0,1-.23-1.74,3.7,3.7,0,0,1,1.08-1.72,8.14,8.14,0,0,1,2.31-1.47,11.78,11.78,0,0,1,1.51-.57,16.46,16.46,0,0,1,1.61-.4q.84-.15,1.68-.24c.56-.05,1.13-.08,1.69-.08s1.11,0,1.65.08,1.08.14,1.58.24a12.44,12.44,0,0,1,1.46.4,8,8,0,0,1,1.29.57,4.57,4.57,0,0,1,1.72,1.47,2.51,2.51,0,0,1,.4,1.72,3.37,3.37,0,0,1-.92,1.74,7.53,7.53,0,0,1-2.25,1.57,14.1,14.1,0,0,1-1.54.61c-.54.17-1.11.32-1.68.44a14.93,14.93,0,0,1-1.76.26,17.68,17.68,0,0,1-1.78.09m2.67-13.43c-1.09,0-2.19.05-3.29.15a32.56,32.56,0,0,0-3.27.46c-1.08.2-2.14.46-3.18.76a26.54,26.54,0,0,0-3,1.09,16.82,16.82,0,0,0-4.66,2.87A7.72,7.72,0,0,0,107,27.87a4.76,4.76,0,0,0,.27,3.53,8.16,8.16,0,0,0,3.15,3.23,16.55,16.55,0,0,0,2.6,1.28,21,21,0,0,0,3.06.92,27.39,27.39,0,0,0,3.38.56,32.55,32.55,0,0,0,3.59.19,34.65,34.65,0,0,0,3.66-.19,33.08,33.08,0,0,0,3.61-.56,29.12,29.12,0,0,0,3.42-.92,25.6,25.6,0,0,0,3.11-1.28,15.6,15.6,0,0,0,3.92-2.69,7.53,7.53,0,0,0,1.95-3,4.73,4.73,0,0,0,0-2.95,6.26,6.26,0,0,0-1.8-2.7c-.17-.15-.34-.3-.53-.45s-.38-.3-.59-.44l-.65-.42c-.23-.14-.47-.27-.72-.4l-.76-.38-.8-.34-.83-.31-.87-.28c-.64-.19-1.3-.36-2-.5s-1.38-.27-2.09-.36-1.45-.17-2.18-.22-1.48-.07-2.24-.07" transform="translate(-6.65 -4.93)" fill="#1bb3de"/></g></g><text transform="translate(259.1 212.81)" font-size="100" fill="#195aa6" font-family="MyriadPro-Regular, Myriad Pro"><tspan letter-spacing="-0.02em">C</tspan><tspan x="56" y="0" letter-spacing="0em">yber</tspan><tspan x="242.8" y="0" fill="#c4c4c4" letter-spacing="-0.03em">F</tspan><tspan x="288.4" y="0" fill="#c4c4c4">orum</tspan><tspan x="514.5" y="0" fill="#22b3dd">.ru</tspan></text></svg>