<svg xmlns="http://www.w3.org/2000/svg" viewBox="0 0 300 105"><title>хабр</title><path d="M80.11,83H56.62L39.7,57.16,22.42,83H0L27.9,43.35.58,4.31H24L40.37,28.8,57.2,4.31H79.69L52.23,42.53Z" /><path d="M126.3,76.7q-1.53,1.17-3.81,2.8a26.53,26.53,0,0,1-4.28,2.59A26.83,26.83,0,0,1,112.4,84a33.83,33.83,0,0,1-6.6.61,20.23,20.23,0,0,1-14.17-5.23A17.35,17.35,0,0,1,85.93,66q0-6.51,2.9-10.63a19.62,19.62,0,0,1,8.25-6.5,46.77,46.77,0,0,1,13.1-3.38q7.83-1,16.22-1.48v-.32c0-3.27-1.33-5.53-4-6.79S115.77,35,110.55,35a33.8,33.8,0,0,0-10,1.66q-5.34,1.66-7.66,2.57H91.1V24.92q3-.8,9.81-1.88A86.39,86.39,0,0,1,114.51,22q16.23,0,23.44,5t7.21,15.67V83H126.3Zm0-9.23V55.14c-2.57.21-5.36.5-8.35.87a40.79,40.79,0,0,0-6.82,1.29,9.48,9.48,0,0,0-4.36,2.61,6.58,6.58,0,0,0-1.5,4.5,11.88,11.88,0,0,0,.31,3,4.55,4.55,0,0,0,1.59,2.21,7.68,7.68,0,0,0,2.91,1.55,19.88,19.88,0,0,0,5.28.5,15.57,15.57,0,0,0,5.79-1.16A18.18,18.18,0,0,0,126.3,67.47Z" /><path d="M216.61,33a24.08,24.08,0,0,1,5.71,8.55,33,33,0,0,1,2.11,12.51q0,14-8.74,22.4T192,84.84q-16.38,0-24.34-10t-7.95-29.93a76.19,76.19,0,0,1,.45-7.7A68.32,68.32,0,0,1,162,27.63a53.65,53.65,0,0,1,3.25-9.36,24.51,24.51,0,0,1,5.42-7.51,27.26,27.26,0,0,1,11.09-6.4A73.49,73.49,0,0,1,196.9,1.45Q202.14,1,209.42.66c4.87-.21,8.44-.35,10.73-.42V14.35l-6.39.29c-1.94.08-4.21.22-6.82.39l-6.24.48c-2.32.17-4.56.44-6.71.79a25.15,25.15,0,0,0-6.13,1.9,13,13,0,0,0-4.65,3.5,13.62,13.62,0,0,0-2.27,4.36,29.52,29.52,0,0,0-1.32,6.57,38.92,38.92,0,0,1,8.85-4.52A31.52,31.52,0,0,1,208.42,28,22.67,22.67,0,0,1,216.61,33Zm-16,35.24a15.16,15.16,0,0,0,3-5,25.49,25.49,0,0,0,1.11-8.5q0-6.4-3.63-10.29a12.37,12.37,0,0,0-9.5-3.9,30.1,30.1,0,0,0-5.8.56,23.9,23.9,0,0,0-6.38,2.41c0,.35,0,.86,0,1.51s0,1.24,0,1.77a86.68,86.68,0,0,0,.6,11.51,23.24,23.24,0,0,0,2.31,7.5,10.59,10.59,0,0,0,4.07,4.31,11.66,11.66,0,0,0,5.94,1.51,13.74,13.74,0,0,0,4.31-.77A9.54,9.54,0,0,0,200.59,68.24Z" /><path d="M300,52.5a38.19,38.19,0,0,1-2.24,13.37,29.37,29.37,0,0,1-5.89,9.93,25.73,25.73,0,0,1-8.6,6.24A25.26,25.26,0,0,1,273,84.15a29.8,29.8,0,0,1-8.61-1.08,40.65,40.65,0,0,1-7.23-3v24.73H238.07V23.65h19.07v6.18a45.55,45.55,0,0,1,8.95-5.65A24.19,24.19,0,0,1,276.62,22q11.08,0,17.23,8.14T300,52.5Zm-19.61.4q0-8.65-2.95-12.56t-9.33-3.9a20.24,20.24,0,0,0-5.54.81,23.3,23.3,0,0,0-5.43,2.35V69.41a15.34,15.34,0,0,0,4.06,1c1.44.14,2.87.21,4.27.21q7.54,0,11.23-4.4C279.17,63.23,280.39,58.81,280.39,52.9Z" /></svg>